<?xml version="1.0" encoding="utf-8"?>
<!-- Generator: Adobe Illustrator 21.1.0, SVG Export Plug-In . SVG Version: 6.00 Build 0)  -->
<svg version="1.1" id="Layer_1" xmlns="http://www.w3.org/2000/svg" xmlns:xlink="http://www.w3.org/1999/xlink" x="0px" y="0px"
	 viewBox="0 0 729 244" style="enable-background:new 0 0 729 244;" xml:space="preserve">
<style type="text/css">
	.st0{fill:#001A70;}
	.st1{fill:#8CDDF8;}
	.st2{fill:#00B3F0;}
	.st3{fill:#59CEF5;}
</style>
<g>
	<path class="st0" d="M46.2,170.8c0-0.4,0.3-0.8,0.8-0.8h16.7c0.5,0,0.8,0.4,0.8,0.8v1.2c0,0.4-0.3,0.8-0.8,0.8H49.5v11.6h12.2
		c0.4,0,0.8,0.4,0.8,0.8v1.2c0,0.4-0.4,0.8-0.8,0.8H49.5v11.6c0,0.4-0.4,0.8-0.8,0.8H47c-0.5,0-0.8-0.4-0.8-0.8V170.8z M82.6,169.5
		c8.5,0,15.3,6.8,15.3,15.3c0,8.5-6.8,15.3-15.3,15.3c-8.5,0-15.3-6.8-15.3-15.3C67.3,176.4,74.1,169.5,82.6,169.5z M82.6,197.1
		c6.8,0,12.3-5.5,12.3-12.3c0-6.8-5.6-12.4-12.3-12.4c-6.8,0-12.3,5.6-12.3,12.4C70.3,191.6,75.8,197.1,82.6,197.1z M103.7,170.8
		c0-0.4,0.4-0.8,0.8-0.8h1.6c0.5,0,0.8,0.4,0.8,0.8v17.7c0,4.8,3,8.6,8,8.6c5,0,8.1-3.7,8.1-8.5v-17.8c0-0.4,0.3-0.8,0.8-0.8h1.6
		c0.4,0,0.8,0.4,0.8,0.8v18c0,6.5-4.6,11.4-11.3,11.4c-6.7,0-11.2-4.9-11.2-11.4V170.8z M134.1,170.3c0-0.4,0.4-0.8,0.8-0.8h1.1
		l19.2,23.9c0,0,0,0,0.1,0v-22.6c0-0.4,0.3-0.8,0.8-0.8h1.5c0.4,0,0.8,0.4,0.8,0.8v28.6c0,0.4-0.4,0.8-0.8,0.8h-0.8l-19.5-24.3h0
		v23.1c0,0.4-0.3,0.8-0.8,0.8h-1.5c-0.4,0-0.8-0.4-0.8-0.8V170.3z M166.4,170.8c0-0.4,0.3-0.8,0.8-0.8h9.5c8.2,0,14.9,6.7,14.9,14.8
		c0,8.2-6.7,14.9-14.9,14.9h-9.5c-0.4,0-0.8-0.4-0.8-0.8V170.8z M176,196.8c7,0,12-5,12-12c0-7-5.1-11.9-12-11.9h-6.4v23.9H176z
		 M192.6,198.6l12.9-28.6c0.1-0.3,0.3-0.5,0.7-0.5h0.4c0.4,0,0.6,0.2,0.7,0.5l12.8,28.6c0.3,0.6-0.1,1.1-0.7,1.1h-1.7
		c-0.4,0-0.6-0.3-0.7-0.5l-3.1-7h-15.1l-3.1,7c-0.1,0.2-0.3,0.5-0.7,0.5h-1.7C192.7,199.7,192.4,199.1,192.6,198.6z M212.8,189.6
		c-2.1-4.6-4.1-9.3-6.2-13.9h-0.3l-6.2,13.9H212.8z M226.6,172.8h-7.4c-0.5,0-0.8-0.4-0.8-0.8v-1.2c0-0.4,0.3-0.8,0.8-0.8h18
		c0.5,0,0.8,0.4,0.8,0.8v1.2c0,0.4-0.3,0.8-0.8,0.8h-7.4v26.1c0,0.4-0.4,0.8-0.8,0.8h-1.6c-0.4,0-0.8-0.4-0.8-0.8V172.8z
		 M242.4,170.8c0-0.4,0.4-0.8,0.8-0.8h1.7c0.4,0,0.8,0.4,0.8,0.8v28.1c0,0.4-0.4,0.8-0.8,0.8h-1.7c-0.4,0-0.8-0.4-0.8-0.8V170.8z
		 M267,169.5c8.5,0,15.3,6.8,15.3,15.3c0,8.5-6.8,15.3-15.3,15.3c-8.5,0-15.3-6.8-15.3-15.3C251.8,176.4,258.5,169.5,267,169.5z
		 M267,197.1c6.8,0,12.3-5.5,12.3-12.3c0-6.8-5.6-12.4-12.3-12.4c-6.8,0-12.3,5.6-12.3,12.4C254.7,191.6,260.3,197.1,267,197.1z
		 M288.8,170.3c0-0.4,0.4-0.8,0.8-0.8h1.1l19.2,23.9c0,0,0,0,0.1,0v-22.6c0-0.4,0.3-0.8,0.8-0.8h1.5c0.4,0,0.8,0.4,0.8,0.8v28.6
		c0,0.4-0.4,0.8-0.8,0.8h-0.8L292,175.8h0v23.1c0,0.4-0.3,0.8-0.8,0.8h-1.5c-0.4,0-0.8-0.4-0.8-0.8V170.3z M66.6,114.9
		c6.3,0,10.9,2,15.1,5.8c0.6,0.5,0.6,1.2,0.1,1.7l-3.8,3.9c-0.4,0.5-1.1,0.5-1.6,0c-2.6-2.3-6.1-3.7-9.6-3.7
		c-8,0-13.9,6.7-13.9,14.6c0,7.8,6,14.4,14,14.4c3.7,0,6.9-1.4,9.6-3.6c0.5-0.4,1.2-0.4,1.6,0l3.9,4c0.5,0.4,0.4,1.2-0.1,1.7
		c-4.2,4.1-9.6,6.1-15.2,6.1c-12.5,0-22.6-9.9-22.6-22.4C44,125,54.1,114.9,66.6,114.9z M89.7,116.7c0-0.6,0.5-1.2,1.2-1.2h17.9
		c7.5,0,13.6,6,13.6,13.4c0,5.7-3.8,10.4-9.2,12.6l8.6,15.9c0.4,0.8,0,1.8-1.1,1.8h-6.6c-0.6,0-0.9-0.3-1-0.6l-8.3-16.6h-6.9v15.9
		c0,0.6-0.6,1.2-1.2,1.2h-5.7c-0.7,0-1.2-0.6-1.2-1.2V116.7z M108.1,135.4c3.3,0,6.2-2.9,6.2-6.4c0-3.3-2.9-6.1-6.2-6.1H97.9v12.4
		H108.1z M150.4,114.9c12.5,0,22.5,10.1,22.5,22.6c0,12.5-10,22.4-22.5,22.4c-12.5,0-22.4-9.9-22.4-22.4
		C128,125,137.9,114.9,150.4,114.9z M150.4,151.8c7.9,0,14.4-6.4,14.4-14.3c0-7.9-6.5-14.4-14.4-14.4c-7.9,0-14.3,6.6-14.3,14.4
		C136.1,145.3,142.5,151.8,150.4,151.8z M180.5,116.7c0-0.6,0.6-1.2,1.2-1.2h5.8c0.7,0,1.2,0.6,1.2,1.2v16.6h20.4v-16.6
		c0-0.6,0.5-1.2,1.2-1.2h5.7c0.6,0,1.2,0.6,1.2,1.2v41.4c0,0.6-0.6,1.2-1.2,1.2h-5.7c-0.7,0-1.2-0.6-1.2-1.2v-17.2h-20.4v17.2
		c0,0.6-0.5,1.2-1.2,1.2h-5.8c-0.6,0-1.2-0.6-1.2-1.2V116.7z M226.9,116c0-0.6,0.6-1.1,1.2-1.1h1.6l26,27.6h0.1v-25.8
		c0-0.6,0.5-1.2,1.2-1.2h5.7c0.6,0,1.2,0.6,1.2,1.2v42c0,0.6-0.6,1.1-1.2,1.1h-1.5L235,131.2H235v26.9c0,0.6-0.5,1.2-1.2,1.2h-5.7
		c-0.6,0-1.2-0.6-1.2-1.2V116z M272.7,131.9c-0.4-0.4-0.3-1.1,0.1-1.4c0.6-0.4,4.2-3.2,4.2-7.6c-0.1,0-0.9,0.3-1.9,0.3
		c-2.3,0-4.2-1.8-4.2-4.1s1.9-4.2,4.4-4.2c2.2,0,5.2,1.6,5.2,6.7c0,6.1-4,9.9-5.6,11.3c-0.5,0.4-0.9,0.4-1.4-0.1L272.7,131.9z
		 M286.8,153.1l2.2-3.9c0.5-0.9,1.6-0.9,2.1-0.4c0.3,0.2,5.4,3.9,9.4,3.9c3.2,0,5.7-2.1,5.7-4.8c0-3.2-2.7-5.4-7.9-7.5
		c-5.9-2.4-11.7-6.1-11.7-13.5c0-5.6,4.1-12,14.1-12c6.4,0,11.2,3.2,12.5,4.2c0.6,0.4,0.8,1.4,0.4,2.1l-2.4,3.6
		c-0.5,0.7-1.4,1.2-2.2,0.7c-0.5-0.3-5.2-3.4-8.7-3.4c-3.6,0-5.5,2.4-5.5,4.4c0,2.9,2.3,4.9,7.4,7c6.1,2.4,13.1,6.1,13.1,14.1
		c0,6.4-5.6,12.4-14.4,12.4c-7.9,0-12.5-3.7-13.7-4.9C286.6,154.4,286.3,154.1,286.8,153.1z M334.4,133.8c-2.1-2.7-3.2-5.4-3.2-8.5
		c0-5.7,4.7-10.5,11.7-10.5c4.5,0,8,1.9,10.6,4.5c0.3,0.3,0.2,0.7-0.1,1l-2.3,2c-0.3,0.2-0.7,0.2-0.9-0.1c-1.9-1.9-4.4-3.3-7.4-3.3
		c-4,0-6.5,2.9-6.5,6.2c0,2.7,1.6,5.5,4.1,8.2c4.6,4.9,9.7,9.2,15.2,13.5c1.6-2.7,2.6-5.8,2.7-9.2c0-0.4,0.3-0.7,0.7-0.7h3.3
		c0.4,0,0.7,0.3,0.7,0.7c-0.1,4.4-1.5,8.5-3.7,11.9c2.5,1.9,5.1,3.7,7.8,5.6c0.3,0.2,0.4,0.7,0.2,1l-2.1,2.7
		c-0.2,0.3-0.6,0.4-0.9,0.1c-2.6-1.9-5.3-3.8-8-5.7c-4,4.1-9.5,6.6-15.8,6.6c-9.9,0-15.2-6.2-15.2-12.9
		C325.2,141.1,329.3,136.7,334.4,133.8z M337,136.8c-3.9,2.2-6.8,5.6-6.8,10c0,4.7,3.6,8.8,10.5,8.8c4.7,0,8.9-1.9,12-4.9
		C347.2,146.4,341.8,141.8,337,136.8z M395.1,114.9c6.3,0,10.9,2,15.1,5.8c0.6,0.5,0.6,1.2,0.1,1.7l-3.8,3.9c-0.4,0.5-1.1,0.5-1.6,0
		c-2.6-2.3-6.1-3.7-9.6-3.7c-8,0-13.9,6.7-13.9,14.6c0,7.8,6,14.4,14,14.4c3.7,0,6.9-1.4,9.6-3.6c0.5-0.4,1.2-0.4,1.6,0l3.9,4
		c0.5,0.4,0.4,1.2-0.1,1.7c-4.2,4.1-9.6,6.1-15.2,6.1c-12.5,0-22.6-9.9-22.6-22.4C372.5,125,382.6,114.9,395.1,114.9z M436.1,114.9
		c12.5,0,22.5,10.1,22.5,22.6c0,12.5-10,22.4-22.5,22.4c-12.5,0-22.4-9.9-22.4-22.4C413.7,125,423.6,114.9,436.1,114.9z
		 M436.1,151.8c7.9,0,14.4-6.4,14.4-14.3c0-7.9-6.5-14.4-14.4-14.4c-7.9,0-14.3,6.6-14.3,14.4C421.8,145.3,428.3,151.8,436.1,151.8z
		 M465.8,116.7c0-0.6,0.5-1.2,1.2-1.2h5.7c0.6,0,1.2,0.6,1.2,1.2v35h15.9c0.7,0,1.2,0.6,1.2,1.2v5.1c0,0.6-0.5,1.2-1.2,1.2H467
		c-0.7,0-1.2-0.6-1.2-1.2V116.7z M498.5,116.7c0-0.6,0.6-1.2,1.2-1.2h5.8c0.6,0,1.2,0.6,1.2,1.2v41.4c0,0.6-0.6,1.2-1.2,1.2h-5.8
		c-0.6,0-1.2-0.6-1.2-1.2V116.7z M524.5,123h-9.6c-0.7,0-1.2-0.6-1.2-1.2v-5.1c0-0.6,0.5-1.2,1.2-1.2h27.3c0.7,0,1.2,0.6,1.2,1.2
		v5.1c0,0.6-0.5,1.2-1.2,1.2h-9.6v35.1c0,0.6-0.6,1.2-1.2,1.2h-5.8c-0.6,0-1.2-0.6-1.2-1.2V123z M550.4,116.7c0-0.6,0.6-1.2,1.2-1.2
		h5.8c0.6,0,1.2,0.6,1.2,1.2v41.4c0,0.6-0.6,1.2-1.2,1.2h-5.8c-0.6,0-1.2-0.6-1.2-1.2V116.7z M568.1,153.1l2.2-3.9
		c0.5-0.9,1.6-0.9,2.1-0.4c0.3,0.2,5.4,3.9,9.4,3.9c3.2,0,5.7-2.1,5.7-4.8c0-3.2-2.7-5.4-7.9-7.5c-5.9-2.4-11.7-6.1-11.7-13.5
		c0-5.6,4.1-12,14.1-12c6.4,0,11.2,3.2,12.5,4.2c0.6,0.4,0.8,1.4,0.4,2.1l-2.4,3.6c-0.5,0.7-1.4,1.2-2.2,0.7
		c-0.5-0.3-5.2-3.4-8.7-3.4c-3.6,0-5.5,2.4-5.5,4.4c0,2.9,2.3,4.9,7.4,7c6.1,2.4,13.1,6.1,13.1,14.1c0,6.4-5.6,12.4-14.4,12.4
		c-7.9,0-12.5-3.7-13.7-4.9C567.8,154.4,567.5,154.1,568.1,153.1z"/>
	<g>
		<path class="st0" d="M614.4,84.7c-7.8,5-18,8.5-29.7,9.5c-0.2-2.4-0.4-5.7-0.4-8.8c0-2.6,0-5.2,0.3-7.6c1-0.1,2.9-0.1,3.9-0.1
			C597.9,77.6,606.8,80.3,614.4,84.7z M664.9,102.7c3.5,8.2,8.6,16.3,15.1,23c2.7-3.8,5.3-9.6,5.3-12.7
			C678.1,105.9,671,103.3,664.9,102.7z M631,62.6c0.3-1.5,0.4-3,0.4-4.6c0-5-1.8-9.7-4.7-14c-4.1,0.3-8.4,0.9-13.7,2.1
			C616.7,52,623.3,57.8,631,62.6z M659.6,73.8c1.8,0.3,3.6,0.4,5.2,0.4c3.3,0,8-0.4,11.7-3.2c-2.4-3.9-6.9-8.9-9.4-10.9
			C663.4,62.5,660.4,66.3,659.6,73.8z M637.2,112c-7.9,6.8-13.8,16.6-16.8,27c3,1.1,7.1,1.5,11.6,1.5c1.7,0,3.5-0.1,5.3-0.3
			c2.1-3.5,3-6.4,3-11.2C640.3,123.2,639.2,117.5,637.2,112z"/>
		<g>
			<path class="st1" d="M664.8,74.2c3.3,0,8-0.4,11.7-3.2c-2.9,2.3-4.2,5.9-4.2,10.5c0,9.6,3.7,21.2,12.9,31.4
				c-7.2-7-14.3-9.6-20.4-10.2c-3.6-8.4-5.5-17-5.5-24.7c0-1.5,0.1-2.9,0.2-4.2C661.4,74,663.2,74.2,664.8,74.2z M631,62.6
				c9.1,5.7,19.7,9.9,28.6,11.2c0.8-7.5,3.9-11.3,7.6-13.6c-1.7,1-3.9,1.5-6.3,1.5c-12.9,0-28.6-9.8-34.1-17.7c3,4.3,4.7,9,4.7,14
				C631.4,59.6,631.3,61.1,631,62.6z"/>
			<path class="st2" d="M637.2,112c-4.2-11.3-12.3-21.1-22.8-27.3c-7.8,5-18,8.5-29.7,9.5c0.8,0,1.5-0.1,2.3-0.1
				c19.5,0,34.9,15.7,34.9,35.8c0,3.2-0.6,6.2-1.4,9.2C623.4,128.7,629.3,118.9,637.2,112z"/>
			<path class="st3" d="M664.9,102.7c3.5,8.2,8.6,16.3,15.1,23c-4.4-4-8.6-6.1-15-6.1c-10.2,0-19.4,8.2-27.6,20.8
				c2.1-3.5,3-6.4,3-11.2c0-5.9-1.1-11.6-3.1-17c6.8-5.9,15.1-9.6,24.4-9.6C662.6,102.5,663.7,102.5,664.9,102.7z M614.4,84.7
				c9.1-5.8,15-13.8,16.6-22.1c-7.7-4.8-14.3-10.6-18-16.5c1.4,2.4,2.5,5,2.5,7.8c0,10.6-11.1,22.1-30.9,23.9c1-0.1,2.9-0.1,3.9-0.1
				C597.9,77.6,606.8,80.3,614.4,84.7z"/>
		</g>
	</g>
</g>
</svg>
